# xmcd
#
# Track frame offsets:
# 150
# 19897
# 43973
# 63249
# 92502
#
# Disc length: 1478 seconds
#
#
# Revision: 0
# Processed by: cddbd v1.5.1PL2 Copyright (c) Steve Scherf et al.
# Submitted via: FreeRIP 2.60 
#
DISCID=3a05c405
DTITLE=Sonny Landreth - Levee Town
DYEAR=2000
DGENRE=Blues
TTITLE0=This River
TTITLE1=The U.S.S. Zydecoldsmobile
TTITLE2=Love and Glory
TTITLE3=Levee Town
TTITLE4=Broken Hearted Road
EXTD=
EXTT0=
EXTT1=
EXTT2=
EXTT3=
EXTT4=
PLAYORDER=
